<?xml version="1.0" encoding="UTF-8" standalone="no"?>
<!DOCTYPE svg PUBLIC "-//W3C//DTD SVG 1.1//EN"
 "http://www.w3.org/Graphics/SVG/1.1/DTD/svg11.dtd">
<!-- Generated by graphviz version 11.0.0 (20240428.1522)
 -->
<!-- Pages: 1 -->
<svg width="373pt" height="279pt"
 viewBox="0.00 0.00 373.25 279.50" xmlns="http://www.w3.org/2000/svg" xmlns:xlink="http://www.w3.org/1999/xlink">
<g id="graph0" class="graph" transform="scale(1 1) rotate(0) translate(4 275.5)">
<polygon fill="white" stroke="none" points="-4,4 -4,-275.5 369.25,-275.5 369.25,4 -4,4"/>
<!-- &#45;1 -->
<g id="node1" class="node">
<title>&#45;1</title>
<polygon fill="lightgray" stroke="black" points="175.25,-117.75 151.75,-117.75 151.75,-98.5 175.25,-98.5 175.25,-117.75"/>
<text text-anchor="middle" x="163.5" y="-105.2" font-family="Times New Roman,serif" font-size="9.00">&#45;1</text>
</g>
<!-- 2 -->
<g id="node11" class="node">
<title>2</title>
<ellipse fill="lightblue" stroke="black" cx="137.5" cy="-24.04" rx="14.5" ry="14.5"/>
<text text-anchor="middle" x="137.5" y="-21.12" font-family="Times New Roman,serif" font-size="9.00">2</text>
</g>
<!-- &#45;1&#45;&gt;2 -->
<g id="edge9" class="edge">
<title>&#45;1&#45;&gt;2</title>
<path fill="none" stroke="green" stroke-width="0.42" d="M160.61,-98.03C156.84,-86.11 150.09,-64.79 144.85,-48.26"/>
<polygon fill="green" stroke="green" stroke-width="0.42" points="148.22,-47.32 141.87,-38.84 141.55,-49.43 148.22,-47.32"/>
</g>
<!-- &#45;2 -->
<g id="node2" class="node">
<title>&#45;2</title>
<polygon fill="lightgray" stroke="black" points="219.25,-201.83 195.75,-201.83 195.75,-182.58 219.25,-182.58 219.25,-201.83"/>
<text text-anchor="middle" x="207.5" y="-189.28" font-family="Times New Roman,serif" font-size="9.00">&#45;2</text>
</g>
<!-- 1 -->
<g id="node10" class="node">
<title>1</title>
<ellipse fill="lightblue" stroke="black" cx="207.5" cy="-108.12" rx="14.5" ry="14.5"/>
<text text-anchor="middle" x="207.5" y="-105.2" font-family="Times New Roman,serif" font-size="9.00">1</text>
</g>
<!-- &#45;2&#45;&gt;1 -->
<g id="edge4" class="edge">
<title>&#45;2&#45;&gt;1</title>
<path fill="none" stroke="red" stroke-width="0.17" d="M207.5,-182.11C207.5,-170.33 207.5,-149.37 207.5,-132.92"/>
<polygon fill="red" stroke="red" stroke-width="0.17" points="211,-133.15 207.5,-123.15 204,-133.15 211,-133.15"/>
</g>
<!-- 3 -->
<g id="node12" class="node">
<title>3</title>
<ellipse fill="lightblue" stroke="black" cx="272.5" cy="-108.12" rx="14.5" ry="14.5"/>
<text text-anchor="middle" x="272.5" y="-105.2" font-family="Times New Roman,serif" font-size="9.00">3</text>
</g>
<!-- &#45;2&#45;&gt;3 -->
<g id="edge14" class="edge">
<title>&#45;2&#45;&gt;3</title>
<path fill="none" stroke="red" stroke-width="0.3" d="M214.7,-182.11C224.95,-169.17 243.97,-145.15 257.39,-128.21"/>
<polygon fill="red" stroke="red" stroke-width="0.3" points="260.07,-130.45 263.54,-120.44 254.59,-126.1 260.07,-130.45"/>
</g>
<!-- &#45;3 -->
<g id="node3" class="node">
<title>&#45;3</title>
<polygon fill="lightgray" stroke="black" points="177.25,-201.83 153.75,-201.83 153.75,-182.58 177.25,-182.58 177.25,-201.83"/>
<text text-anchor="middle" x="165.5" y="-189.28" font-family="Times New Roman,serif" font-size="9.00">&#45;3</text>
</g>
<!-- &#45;3&#45;&gt;1 -->
<g id="edge5" class="edge">
<title>&#45;3&#45;&gt;1</title>
<path fill="none" stroke="red" stroke-width="0.28" d="M170.15,-182.11C176.47,-169.76 187.96,-147.3 196.53,-130.55"/>
<polygon fill="red" stroke="red" stroke-width="0.28" points="199.55,-132.34 200.99,-121.85 193.32,-129.15 199.55,-132.34"/>
</g>
<!-- &#45;3&#45;&gt;3 -->
<g id="edge2" class="edge">
<title>&#45;3&#45;&gt;3</title>
<path fill="none" stroke="green" stroke-width="0.12" d="M172.32,-182.51C176.18,-177.92 181.27,-172.38 186.5,-168.17 211.29,-148.16 223.04,-151.34 248.5,-132.17 251.08,-130.22 253.68,-128.02 256.17,-125.78"/>
<polygon fill="green" stroke="green" stroke-width="0.12" points="258.21,-128.67 263.03,-119.23 253.38,-123.6 258.21,-128.67"/>
</g>
<!-- &#45;4 -->
<g id="node4" class="node">
<title>&#45;4</title>
<polygon fill="lightgray" stroke="black" points="365.25,-201.83 341.75,-201.83 341.75,-182.58 365.25,-182.58 365.25,-201.83"/>
<text text-anchor="middle" x="353.5" y="-189.28" font-family="Times New Roman,serif" font-size="9.00">&#45;4</text>
</g>
<!-- &#45;4&#45;&gt;1 -->
<g id="edge8" class="edge">
<title>&#45;4&#45;&gt;1</title>
<path fill="none" stroke="red" stroke-width="0.72" d="M346.86,-182.26C343.05,-177.6 337.96,-172.07 332.5,-168.17 299.78,-144.79 285.61,-149.86 249.5,-132.17 242.83,-128.9 235.71,-125.11 229.26,-121.56"/>
<polygon fill="red" stroke="red" stroke-width="0.72" points="231.22,-118.65 220.79,-116.82 227.81,-124.76 231.22,-118.65"/>
</g>
<!-- &#45;4&#45;&gt;2 -->
<g id="edge11" class="edge">
<title>&#45;4&#45;&gt;2</title>
<path fill="none" stroke="green" stroke-width="0.71" d="M351.18,-182.21C345.43,-161.63 328.5,-110.87 295.5,-84.08 251.93,-48.72 225.66,-71.12 174.5,-48.08 169.03,-45.62 163.4,-42.48 158.24,-39.31"/>
<polygon fill="green" stroke="green" stroke-width="0.71" points="160.24,-36.43 149.94,-33.94 156.44,-42.31 160.24,-36.43"/>
</g>
<!-- &#45;4&#45;&gt;3 -->
<g id="edge17" class="edge">
<title>&#45;4&#45;&gt;3</title>
<path fill="none" stroke="green" stroke-width="0.26" d="M345.43,-182.13C341.57,-177.85 336.85,-172.69 332.5,-168.17 318.36,-153.48 301.82,-137.28 289.69,-125.56"/>
<polygon fill="green" stroke="green" stroke-width="0.26" points="292.34,-123.25 282.71,-118.85 287.49,-128.3 292.34,-123.25"/>
</g>
<!-- &#45;5 -->
<g id="node5" class="node">
<title>&#45;5</title>
<polygon fill="lightgray" stroke="black" points="34.25,-201.83 10.75,-201.83 10.75,-182.58 34.25,-182.58 34.25,-201.83"/>
<text text-anchor="middle" x="22.5" y="-189.28" font-family="Times New Roman,serif" font-size="9.00">&#45;5</text>
</g>
<!-- 0 -->
<g id="node9" class="node">
<title>0</title>
<ellipse fill="lightblue" stroke="black" cx="14.5" cy="-108.12" rx="14.5" ry="14.5"/>
<text text-anchor="middle" x="14.5" y="-105.2" font-family="Times New Roman,serif" font-size="9.00">0</text>
</g>
<!-- &#45;5&#45;&gt;0 -->
<g id="edge7" class="edge">
<title>&#45;5&#45;&gt;0</title>
<path fill="none" stroke="red" stroke-width="0.16" d="M21.61,-182.11C20.46,-170.33 18.42,-149.37 16.81,-132.92"/>
<polygon fill="red" stroke="red" stroke-width="0.16" points="20.32,-132.76 15.86,-123.14 13.35,-133.44 20.32,-132.76"/>
</g>
<!-- &#45;5&#45;&gt;1 -->
<g id="edge15" class="edge">
<title>&#45;5&#45;&gt;1</title>
<path fill="none" stroke="red" stroke-width="0.48" d="M31.37,-182.23C36.55,-177.44 43.44,-171.8 50.5,-168.17 105.32,-139.94 131.11,-163.04 184.5,-132.17 186.89,-130.78 189.22,-129.08 191.4,-127.24"/>
<polygon fill="red" stroke="red" stroke-width="0.48" points="193.81,-129.78 198.53,-120.3 188.92,-124.77 193.81,-129.78"/>
</g>
<!-- &#45;6 -->
<g id="node6" class="node">
<title>&#45;6</title>
<polygon fill="lightgray" stroke="black" points="83.25,-201.83 59.75,-201.83 59.75,-182.58 83.25,-182.58 83.25,-201.83"/>
<text text-anchor="middle" x="71.5" y="-189.28" font-family="Times New Roman,serif" font-size="9.00">&#45;6</text>
</g>
<!-- &#45;6&#45;&gt;0 -->
<g id="edge3" class="edge">
<title>&#45;6&#45;&gt;0</title>
<path fill="none" stroke="green" stroke-width="0.9" d="M65.18,-182.11C56.46,-169.55 40.48,-146.54 28.79,-129.7"/>
<polygon fill="green" stroke="green" stroke-width="0.9" points="31.84,-127.97 23.27,-121.75 26.09,-131.96 31.84,-127.97"/>
</g>
<!-- &#45;6&#45;&gt;1 -->
<g id="edge16" class="edge">
<title>&#45;6&#45;&gt;1</title>
<path fill="none" stroke="red" stroke-width="0.48" d="M82.27,-182.26C88.05,-177.7 95.42,-172.28 102.5,-168.17 136.91,-148.17 151.65,-154.64 184.5,-132.17 186.7,-130.66 188.87,-128.92 190.95,-127.09"/>
<polygon fill="red" stroke="red" stroke-width="0.48" points="193.14,-129.85 197.86,-120.37 188.25,-124.84 193.14,-129.85"/>
</g>
<!-- 2081 -->
<g id="node14" class="node">
<title>2081</title>
<ellipse fill="white" stroke="black" cx="71.5" cy="-108.12" rx="24.04" ry="24.04"/>
<text text-anchor="middle" x="71.5" y="-105.2" font-family="Times New Roman,serif" font-size="9.00">2081</text>
</g>
<!-- &#45;6&#45;&gt;2081 -->
<g id="edge23" class="edge">
<title>&#45;6&#45;&gt;2081</title>
<path fill="none" stroke="red" stroke-width="0.56" d="M71.5,-182.11C71.5,-172.66 71.5,-157.31 71.5,-143.11"/>
<polygon fill="red" stroke="red" stroke-width="0.56" points="75,-143.44 71.5,-133.44 68,-143.44 75,-143.44"/>
</g>
<!-- &#45;7 -->
<g id="node7" class="node">
<title>&#45;7</title>
<polygon fill="lightgray" stroke="black" points="285.25,-271.5 261.75,-271.5 261.75,-252.25 285.25,-252.25 285.25,-271.5"/>
<text text-anchor="middle" x="273.5" y="-258.95" font-family="Times New Roman,serif" font-size="9.00">&#45;7</text>
</g>
<!-- &#45;7&#45;&gt;3 -->
<g id="edge20" class="edge">
<title>&#45;7&#45;&gt;3</title>
<path fill="none" stroke="green" stroke-width="0.77" stroke-dasharray="1,5" d="M271.69,-252.03C269.96,-243.06 267.47,-228.76 266.5,-216.25 264.28,-187.89 266.85,-155.24 269.27,-133.52"/>
<polygon fill="green" stroke="green" stroke-width="0.77" points="272.72,-134.17 270.44,-123.83 265.77,-133.34 272.72,-134.17"/>
</g>
<!-- 4067 -->
<g id="node13" class="node">
<title>4067</title>
<ellipse fill="white" stroke="black" cx="299.5" cy="-192.21" rx="24.04" ry="24.04"/>
<text text-anchor="middle" x="299.5" y="-189.28" font-family="Times New Roman,serif" font-size="9.00">4067</text>
</g>
<!-- &#45;7&#45;&gt;4067 -->
<g id="edge21" class="edge">
<title>&#45;7&#45;&gt;4067</title>
<path fill="none" stroke="green" stroke-width="0.33" d="M276.89,-252.03C279.58,-245.04 283.5,-234.85 287.32,-224.9"/>
<polygon fill="green" stroke="green" stroke-width="0.33" points="290.56,-226.22 290.88,-215.63 284.03,-223.71 290.56,-226.22"/>
</g>
<!-- &#45;8 -->
<g id="node8" class="node">
<title>&#45;8</title>
<polygon fill="lightgray" stroke="black" points="135.25,-201.83 111.75,-201.83 111.75,-182.58 135.25,-182.58 135.25,-201.83"/>
<text text-anchor="middle" x="123.5" y="-189.28" font-family="Times New Roman,serif" font-size="9.00">&#45;8</text>
</g>
<!-- &#45;8&#45;&gt;0 -->
<g id="edge6" class="edge">
<title>&#45;8&#45;&gt;0</title>
<path fill="none" stroke="green" stroke-width="0.24" d="M111.53,-182.09C105.82,-177.8 98.86,-172.65 92.5,-168.17 68.91,-151.56 60.99,-150.23 38.5,-132.17 36.13,-130.27 33.73,-128.18 31.4,-126.06"/>
<polygon fill="green" stroke="green" stroke-width="0.24" points="33.86,-123.57 24.21,-119.2 29.03,-128.63 33.86,-123.57"/>
</g>
<!-- &#45;8&#45;&gt;1 -->
<g id="edge1" class="edge">
<title>&#45;8&#45;&gt;1</title>
<path fill="none" stroke="red" stroke-width="0.12" d="M131.08,-182.48C134.99,-178.09 139.89,-172.74 144.5,-168.17 161.46,-151.31 167.15,-148.64 184.5,-132.17 186.57,-130.2 188.72,-128.1 190.84,-126.02"/>
<polygon fill="red" stroke="red" stroke-width="0.12" points="193.03,-128.78 197.63,-119.24 188.08,-123.82 193.03,-128.78"/>
</g>
<!-- &#45;8&#45;&gt;2 -->
<g id="edge13" class="edge">
<title>&#45;8&#45;&gt;2</title>
<path fill="none" stroke="green" stroke-width="0.35" d="M124.25,-182.27C126.35,-157.36 132.32,-86.51 135.48,-49.01"/>
<polygon fill="green" stroke="green" stroke-width="0.35" points="138.93,-49.74 136.28,-39.48 131.95,-49.15 138.93,-49.74"/>
</g>
<!-- &#45;8&#45;&gt;3 -->
<g id="edge12" class="edge">
<title>&#45;8&#45;&gt;3</title>
<path fill="none" stroke="red" stroke-width="0.39" d="M130.02,-182.09C133.79,-177.38 138.89,-171.86 144.5,-168.17 185.34,-141.26 206.77,-157.7 248.5,-132.17 251.08,-130.58 253.62,-128.68 256.01,-126.66"/>
<polygon fill="red" stroke="red" stroke-width="0.39" points="258.2,-129.4 263.07,-119.99 253.4,-124.31 258.2,-129.4"/>
</g>
<!-- &#45;8&#45;&gt;2081 -->
<g id="edge18" class="edge">
<title>&#45;8&#45;&gt;2081</title>
<path fill="none" stroke="green" stroke-width="0.34" d="M117.73,-182.11C110.97,-171.43 99.42,-153.21 89.56,-137.64"/>
<polygon fill="green" stroke="green" stroke-width="0.34" points="92.58,-135.87 84.28,-129.3 86.67,-139.62 92.58,-135.87"/>
</g>
<!-- 1&#45;&gt;1 -->
<g id="edge10" class="edge">
<title>1&#45;&gt;1</title>
<path fill="none" stroke="green" stroke-width="0.12" stroke-dasharray="1,5" d="M216.81,-119.7C227.55,-127.91 239.99,-124.05 239.99,-108.12 239.99,-96.68 233.56,-91.46 225.96,-92.49"/>
<polygon fill="green" stroke="green" stroke-width="0.12" points="224.69,-89.22 216.98,-96.48 227.54,-95.62 224.69,-89.22"/>
</g>
<!-- 4443 -->
<g id="node15" class="node">
<title>4443</title>
<ellipse fill="white" stroke="black" cx="207.5" cy="-24.04" rx="24.04" ry="24.04"/>
<text text-anchor="middle" x="207.5" y="-21.12" font-family="Times New Roman,serif" font-size="9.00">4443</text>
</g>
<!-- 1&#45;&gt;4443 -->
<g id="edge24" class="edge">
<title>1&#45;&gt;4443</title>
<path fill="none" stroke="green" stroke-width="0.3" d="M202.43,-94.3C201.01,-84.58 200.49,-70.76 200.86,-58.02"/>
<polygon fill="green" stroke="green" stroke-width="0.3" points="204.35,-58.31 201.37,-48.14 197.36,-57.95 204.35,-58.31"/>
</g>
<!-- 4067&#45;&gt;3 -->
<g id="edge22" class="edge">
<title>4067&#45;&gt;3</title>
<path fill="none" stroke="green" stroke-width="0.59" d="M292.26,-169.21C288.52,-157.84 283.95,-143.96 280.15,-132.41"/>
<polygon fill="green" stroke="green" stroke-width="0.59" points="283.53,-131.46 277.08,-123.06 276.88,-133.65 283.53,-131.46"/>
</g>
<!-- 2081&#45;&gt;2 -->
<g id="edge19" class="edge">
<title>2081&#45;&gt;2</title>
<path fill="none" stroke="red" stroke-width="0.29" d="M86.14,-88.91C96.86,-75.58 111.36,-57.54 122.22,-44.04"/>
<polygon fill="red" stroke="red" stroke-width="0.29" points="124.95,-46.24 128.48,-36.25 119.49,-41.85 124.95,-46.24"/>
</g>
<!-- 4443&#45;&gt;1 -->
<g id="edge25" class="edge">
<title>4443&#45;&gt;1</title>
<path fill="none" stroke="green" stroke-width="0.39" d="M213.6,-47.69C214.45,-58.95 214.46,-72.54 213.65,-83.88"/>
<polygon fill="green" stroke="green" stroke-width="0.39" points="210.18,-83.4 212.62,-93.71 217.14,-84.12 210.18,-83.4"/>
</g>
</g>
</svg>
