<?xml version="1.0" encoding="UTF-8" standalone="no"?>
<!DOCTYPE svg PUBLIC "-//W3C//DTD SVG 1.1//EN"
 "http://www.w3.org/Graphics/SVG/1.1/DTD/svg11.dtd">
<!-- Generated by graphviz version 11.0.0 (20240428.1522)
 -->
<!-- Pages: 1 -->
<svg width="585pt" height="176pt"
 viewBox="0.00 0.00 584.69 176.32" xmlns="http://www.w3.org/2000/svg" xmlns:xlink="http://www.w3.org/1999/xlink">
<g id="graph0" class="graph" transform="scale(1 1) rotate(0) translate(4 172.32)">
<polygon fill="white" stroke="none" points="-4,4 -4,-172.32 580.69,-172.32 580.69,4 -4,4"/>
<!-- &#45;1 -->
<g id="node1" class="node">
<title>&#45;1</title>
<polygon fill="lightgray" stroke="black" points="284.69,-168.32 261.19,-168.32 261.19,-149.07 284.69,-149.07 284.69,-168.32"/>
<text text-anchor="middle" x="272.94" y="-155.77" font-family="Times New Roman,serif" font-size="9.00">&#45;1</text>
</g>
<!-- 0 -->
<g id="node9" class="node">
<title>0</title>
<ellipse fill="lightblue" stroke="black" cx="106.94" cy="-14.5" rx="14.5" ry="14.5"/>
<text text-anchor="middle" x="106.94" y="-11.57" font-family="Times New Roman,serif" font-size="9.00">0</text>
</g>
<!-- &#45;1&#45;&gt;0 -->
<g id="edge4" class="edge">
<title>&#45;1&#45;&gt;0</title>
<path fill="none" stroke="green" stroke-width="0.17" d="M262.55,-148.8C235.09,-125.27 160.24,-61.16 125.33,-31.25"/>
<polygon fill="green" stroke="green" stroke-width="0.17" points="127.82,-28.77 117.95,-24.93 123.26,-34.09 127.82,-28.77"/>
</g>
<!-- 2 -->
<g id="node11" class="node">
<title>2</title>
<ellipse fill="lightblue" stroke="black" cx="437.94" cy="-89.03" rx="14.5" ry="14.5"/>
<text text-anchor="middle" x="437.94" y="-86.11" font-family="Times New Roman,serif" font-size="9.00">2</text>
</g>
<!-- &#45;1&#45;&gt;2 -->
<g id="edge6" class="edge">
<title>&#45;1&#45;&gt;2</title>
<path fill="none" stroke="red" stroke-width="0.1" d="M285.02,-155.8C310.39,-151.4 370.44,-138.9 413.94,-113.07 416.72,-111.42 419.43,-109.39 421.97,-107.23"/>
<polygon fill="red" stroke="red" stroke-width="0.1" points="424.03,-110.1 428.87,-100.67 419.21,-105.03 424.03,-110.1"/>
</g>
<!-- 3 -->
<g id="node12" class="node">
<title>3</title>
<ellipse fill="lightblue" stroke="black" cx="246.94" cy="-14.5" rx="14.5" ry="14.5"/>
<text text-anchor="middle" x="246.94" y="-11.57" font-family="Times New Roman,serif" font-size="9.00">3</text>
</g>
<!-- &#45;1&#45;&gt;3 -->
<g id="edge13" class="edge">
<title>&#45;1&#45;&gt;3</title>
<path fill="none" stroke="green" stroke-width="0.31" d="M263.61,-148.8C255.58,-140.45 244.58,-127.17 239.94,-113.07 231.91,-88.71 235.79,-59.13 240.32,-38.97"/>
<polygon fill="green" stroke="green" stroke-width="0.31" points="243.71,-39.84 242.72,-29.29 236.92,-38.16 243.71,-39.84"/>
</g>
<!-- 1806 -->
<g id="node13" class="node">
<title>1806</title>
<ellipse fill="white" stroke="black" cx="380.94" cy="-89.03" rx="24.04" ry="24.04"/>
<text text-anchor="middle" x="380.94" y="-86.11" font-family="Times New Roman,serif" font-size="9.00">1806</text>
</g>
<!-- &#45;1&#45;&gt;1806 -->
<g id="edge28" class="edge">
<title>&#45;1&#45;&gt;1806</title>
<path fill="none" stroke="red" stroke-width="0.52" d="M285.05,-150.85C300.02,-142.32 326.17,-127.12 347.94,-113.07 349.61,-111.99 351.32,-110.87 353.04,-109.72"/>
<polygon fill="red" stroke="red" stroke-width="0.52" points="354.62,-112.88 360.91,-104.36 350.67,-107.1 354.62,-112.88"/>
</g>
<!-- 1807 -->
<g id="node14" class="node">
<title>1807</title>
<ellipse fill="white" stroke="black" cx="272.94" cy="-89.03" rx="24.04" ry="24.04"/>
<text text-anchor="middle" x="272.94" y="-86.11" font-family="Times New Roman,serif" font-size="9.00">1807</text>
</g>
<!-- &#45;1&#45;&gt;1807 -->
<g id="edge21" class="edge">
<title>&#45;1&#45;&gt;1807</title>
<path fill="none" stroke="red" stroke-width="0.13" d="M272.94,-148.85C272.94,-142.28 272.94,-132.85 272.94,-123.47"/>
<polygon fill="red" stroke="red" stroke-width="0.13" points="276.44,-123.63 272.94,-113.63 269.44,-123.63 276.44,-123.63"/>
</g>
<!-- &#45;2 -->
<g id="node2" class="node">
<title>&#45;2</title>
<polygon fill="lightgray" stroke="black" points="80.69,-168.32 57.19,-168.32 57.19,-149.07 80.69,-149.07 80.69,-168.32"/>
<text text-anchor="middle" x="68.94" y="-155.77" font-family="Times New Roman,serif" font-size="9.00">&#45;2</text>
</g>
<!-- &#45;2&#45;&gt;0 -->
<g id="edge27" class="edge">
<title>&#45;2&#45;&gt;0</title>
<path fill="none" stroke="green" stroke-width="0.2" d="M56.84,-152.94C42.18,-146.43 18.15,-133.2 7.94,-113.07 -1.73,-94.02 -3.3,-83.17 7.94,-64.99 24.15,-38.77 58.92,-25.97 82.62,-20.08"/>
<polygon fill="green" stroke="green" stroke-width="0.2" points="83.34,-23.5 92.33,-17.89 81.81,-16.67 83.34,-23.5"/>
</g>
<!-- &#45;2&#45;&gt;3 -->
<g id="edge20" class="edge">
<title>&#45;2&#45;&gt;3</title>
<path fill="none" stroke="green" stroke-width="0.42" d="M78.03,-148.81C95.66,-131.75 136.02,-93.57 172.94,-64.99 190.24,-51.59 211.05,-37.87 226.18,-28.29"/>
<polygon fill="green" stroke="green" stroke-width="0.42" points="227.63,-31.51 234.25,-23.23 223.92,-25.58 227.63,-31.51"/>
</g>
<!-- &#45;2&#45;&gt;1806 -->
<g id="edge25" class="edge">
<title>&#45;2&#45;&gt;1806</title>
<path fill="none" stroke="red" stroke-width="0.13" d="M81.13,-155.79C134.47,-147.41 344.76,-114.36 347.94,-113.07 349.99,-112.24 352.04,-111.27 354.06,-110.19"/>
<polygon fill="red" stroke="red" stroke-width="0.13" points="355.7,-113.29 362.42,-105.1 352.06,-107.31 355.7,-113.29"/>
</g>
<!-- &#45;3 -->
<g id="node3" class="node">
<title>&#45;3</title>
<polygon fill="lightgray" stroke="black" points="576.69,-168.32 553.19,-168.32 553.19,-149.07 576.69,-149.07 576.69,-168.32"/>
<text text-anchor="middle" x="564.94" y="-155.77" font-family="Times New Roman,serif" font-size="9.00">&#45;3</text>
</g>
<!-- 1 -->
<g id="node10" class="node">
<title>1</title>
<ellipse fill="lightblue" stroke="black" cx="517.94" cy="-14.5" rx="14.5" ry="14.5"/>
<text text-anchor="middle" x="517.94" y="-11.57" font-family="Times New Roman,serif" font-size="9.00">1</text>
</g>
<!-- &#45;3&#45;&gt;1 -->
<g id="edge17" class="edge">
<title>&#45;3&#45;&gt;1</title>
<path fill="none" stroke="red" stroke-width="0.19" d="M567.92,-148.81C573.13,-131.76 582.2,-93.58 569.94,-64.99 563.52,-50.02 550.1,-37.44 538.51,-28.7"/>
<polygon fill="red" stroke="red" stroke-width="0.19" points="540.56,-25.87 530.37,-22.97 536.53,-31.59 540.56,-25.87"/>
</g>
<!-- &#45;3&#45;&gt;2 -->
<g id="edge3" class="edge">
<title>&#45;3&#45;&gt;2</title>
<path fill="none" stroke="red" stroke-width="0.14" d="M552.76,-151.21C531.31,-139.78 486.51,-115.91 459.65,-101.6"/>
<polygon fill="red" stroke="red" stroke-width="0.14" points="461.31,-98.52 450.83,-96.9 458.01,-104.7 461.31,-98.52"/>
</g>
<!-- &#45;4 -->
<g id="node4" class="node">
<title>&#45;4</title>
<polygon fill="lightgray" stroke="black" points="477.69,-168.32 454.19,-168.32 454.19,-149.07 477.69,-149.07 477.69,-168.32"/>
<text text-anchor="middle" x="465.94" y="-155.77" font-family="Times New Roman,serif" font-size="9.00">&#45;4</text>
</g>
<!-- &#45;4&#45;&gt;1 -->
<g id="edge26" class="edge">
<title>&#45;4&#45;&gt;1</title>
<path fill="none" stroke="green" stroke-width="0.34" d="M478.17,-153.54C493.91,-147.46 520.59,-134.45 531.94,-113.07 544.5,-89.41 536.46,-58.2 528.32,-37.52"/>
<polygon fill="green" stroke="green" stroke-width="0.34" points="531.62,-36.33 524.49,-28.5 525.18,-39.07 531.62,-36.33"/>
</g>
<!-- &#45;4&#45;&gt;2 -->
<g id="edge15" class="edge">
<title>&#45;4&#45;&gt;2</title>
<path fill="none" stroke="green" stroke-width="0.26" d="M462.28,-148.85C458.44,-139.58 452.26,-124.65 447.09,-112.16"/>
<polygon fill="green" stroke="green" stroke-width="0.26" points="450.44,-111.08 443.38,-103.18 443.97,-113.76 450.44,-111.08"/>
</g>
<!-- &#45;4&#45;&gt;3 -->
<g id="edge18" class="edge">
<title>&#45;4&#45;&gt;3</title>
<path fill="none" stroke="red" stroke-width="0.41" d="M468.59,-148.8C473.39,-130.67 481.26,-89.18 460.94,-64.99 436.82,-36.29 323.5,-22.48 272.24,-17.62"/>
<polygon fill="red" stroke="red" stroke-width="0.41" points="272.63,-14.14 262.36,-16.72 272,-21.11 272.63,-14.14"/>
</g>
<!-- &#45;4&#45;&gt;1806 -->
<g id="edge8" class="edge">
<title>&#45;4&#45;&gt;1806</title>
<path fill="none" stroke="red" stroke-width="0.3" d="M454.83,-148.85C442.87,-139.34 423.43,-123.86 407.48,-111.17"/>
<polygon fill="red" stroke="red" stroke-width="0.3" points="409.89,-108.61 399.89,-105.12 405.53,-114.08 409.89,-108.61"/>
</g>
<!-- &#45;5 -->
<g id="node5" class="node">
<title>&#45;5</title>
<polygon fill="lightgray" stroke="black" points="40.69,-98.66 17.19,-98.66 17.19,-79.41 40.69,-79.41 40.69,-98.66"/>
<text text-anchor="middle" x="28.94" y="-86.11" font-family="Times New Roman,serif" font-size="9.00">&#45;5</text>
</g>
<!-- &#45;5&#45;&gt;0 -->
<g id="edge24" class="edge">
<title>&#45;5&#45;&gt;0</title>
<path fill="none" stroke="red" stroke-width="0.22" d="M38.5,-79.14C51.04,-67.48 73.29,-46.79 89.01,-32.17"/>
<polygon fill="red" stroke="red" stroke-width="0.22" points="91.37,-34.75 96.31,-25.38 86.6,-29.63 91.37,-34.75"/>
</g>
<!-- &#45;6 -->
<g id="node6" class="node">
<title>&#45;6</title>
<polygon fill="lightgray" stroke="black" points="156.69,-168.32 133.19,-168.32 133.19,-149.07 156.69,-149.07 156.69,-168.32"/>
<text text-anchor="middle" x="144.94" y="-155.77" font-family="Times New Roman,serif" font-size="9.00">&#45;6</text>
</g>
<!-- &#45;6&#45;&gt;0 -->
<g id="edge16" class="edge">
<title>&#45;6&#45;&gt;0</title>
<path fill="none" stroke="green" stroke-width="0.13" d="M141.98,-148.86C139.03,-139.89 134.44,-125.59 130.94,-113.07 123.89,-87.87 116.86,-58.69 112.25,-38.85"/>
<polygon fill="green" stroke="green" stroke-width="0.13" points="115.71,-38.28 110.05,-29.33 108.89,-39.86 115.71,-38.28"/>
</g>
<!-- &#45;6&#45;&gt;2 -->
<g id="edge14" class="edge">
<title>&#45;6&#45;&gt;2</title>
<path fill="none" stroke="green" stroke-width="0.42" d="M156.95,-156.66C202.93,-152.52 367.49,-136.36 413.94,-113.07 416.65,-111.72 419.26,-109.94 421.69,-107.99"/>
<polygon fill="green" stroke="green" stroke-width="0.42" points="423.83,-110.78 428.73,-101.38 419.04,-105.68 423.83,-110.78"/>
</g>
<!-- &#45;6&#45;&gt;3 -->
<g id="edge11" class="edge">
<title>&#45;6&#45;&gt;3</title>
<path fill="none" stroke="red" stroke-width="0.51" d="M151.32,-148.8C167.51,-126.22 210.52,-66.27 232.92,-35.04"/>
<polygon fill="red" stroke="red" stroke-width="0.51" points="235.48,-37.48 238.46,-27.31 229.79,-33.4 235.48,-37.48"/>
</g>
<!-- &#45;7 -->
<g id="node7" class="node">
<title>&#45;7</title>
<polygon fill="lightgray" stroke="black" points="338.69,-98.66 315.19,-98.66 315.19,-79.41 338.69,-79.41 338.69,-98.66"/>
<text text-anchor="middle" x="326.94" y="-86.11" font-family="Times New Roman,serif" font-size="9.00">&#45;7</text>
</g>
<!-- &#45;7&#45;&gt;3 -->
<g id="edge23" class="edge">
<title>&#45;7&#45;&gt;3</title>
<path fill="none" stroke="green" stroke-width="0.29" d="M319.42,-79.24C315.53,-74.83 310.62,-69.49 305.94,-64.99 293.21,-52.77 277.92,-40 266.1,-30.49"/>
<polygon fill="green" stroke="green" stroke-width="0.29" points="268.54,-27.96 258.54,-24.47 264.18,-33.44 268.54,-27.96"/>
</g>
<!-- &#45;8 -->
<g id="node8" class="node">
<title>&#45;8</title>
<polygon fill="lightgray" stroke="black" points="413.69,-168.32 390.19,-168.32 390.19,-149.07 413.69,-149.07 413.69,-168.32"/>
<text text-anchor="middle" x="401.94" y="-155.77" font-family="Times New Roman,serif" font-size="9.00">&#45;8</text>
</g>
<!-- &#45;8&#45;&gt;1 -->
<g id="edge5" class="edge">
<title>&#45;8&#45;&gt;1</title>
<path fill="none" stroke="green" stroke-width="0.2" d="M413.9,-150.66C426.67,-142.71 446.96,-128.83 460.94,-113.07 481.42,-90 498.25,-58.45 508.18,-37.55"/>
<polygon fill="green" stroke="green" stroke-width="0.2" points="511.35,-39.04 512.36,-28.5 504.99,-36.11 511.35,-39.04"/>
</g>
<!-- &#45;8&#45;&gt;2 -->
<g id="edge12" class="edge">
<title>&#45;8&#45;&gt;2</title>
<path fill="none" stroke="red" stroke-width="0.25" d="M406.64,-148.85C411.69,-139.38 419.87,-123.99 426.61,-111.33"/>
<polygon fill="red" stroke="red" stroke-width="0.25" points="429.61,-113.13 431.22,-102.66 423.43,-109.84 429.61,-113.13"/>
</g>
<!-- &#45;8&#45;&gt;1806 -->
<g id="edge2" class="edge">
<title>&#45;8&#45;&gt;1806</title>
<path fill="none" stroke="green" stroke-width="0.15" d="M399.19,-148.85C397.04,-141.92 393.91,-131.83 390.84,-121.95"/>
<polygon fill="green" stroke="green" stroke-width="0.15" points="394.21,-121 387.91,-112.49 387.53,-123.07 394.21,-121"/>
</g>
<!-- &#45;8&#45;&gt;1807 -->
<g id="edge19" class="edge">
<title>&#45;8&#45;&gt;1807</title>
<path fill="none" stroke="green" stroke-width="0.61" d="M389.78,-152.85C371.22,-145.28 334.93,-129.76 305.94,-113.07 304.36,-112.16 302.75,-111.2 301.15,-110.2"/>
<polygon fill="green" stroke="green" stroke-width="0.61" points="303.16,-107.33 292.88,-104.76 299.32,-113.18 303.16,-107.33"/>
</g>
<!-- 0&#45;&gt;0 -->
<g id="edge7" class="edge">
<title>0&#45;&gt;0</title>
<path fill="none" stroke="red" stroke-width="0.21" d="M116.92,-25.19C127.5,-31.89 139.43,-28.33 139.43,-14.5 139.43,-4.77 133.53,-0.12 126.35,-0.55"/>
<polygon fill="red" stroke="red" stroke-width="0.21" points="125.53,2.87 117.21,-3.7 127.81,-3.75 125.53,2.87"/>
</g>
<!-- 1&#45;&gt;1 -->
<g id="edge10" class="edge">
<title>1&#45;&gt;1</title>
<path fill="none" stroke="green" stroke-width="0.23" d="M527.92,-25.19C538.5,-31.89 550.43,-28.33 550.43,-14.5 550.43,-4.77 544.53,-0.12 537.35,-0.55"/>
<polygon fill="green" stroke="green" stroke-width="0.23" points="536.57,2.88 528.25,-3.68 538.85,-3.73 536.57,2.88"/>
</g>
<!-- 1806&#45;&gt;1 -->
<g id="edge22" class="edge">
<title>1806&#45;&gt;1</title>
<path fill="none" stroke="red" stroke-width="0.25" d="M400.4,-74.13C405.08,-70.99 410.12,-67.76 414.94,-64.99 441.69,-49.61 473.96,-34.65 495.16,-25.27"/>
<polygon fill="red" stroke="red" stroke-width="0.25" points="496.51,-28.5 504.27,-21.29 493.71,-22.09 496.51,-28.5"/>
</g>
<!-- 1807&#45;&gt;0 -->
<g id="edge9" class="edge">
<title>1807&#45;&gt;0</title>
<path fill="none" stroke="red" stroke-width="0.34" d="M250.89,-78.4C219.22,-64.56 161.15,-39.19 129.3,-25.27"/>
<polygon fill="red" stroke="red" stroke-width="0.34" points="130.98,-22.18 120.42,-21.39 128.18,-28.6 130.98,-22.18"/>
</g>
<!-- 1807&#45;&gt;3 -->
<g id="edge1" class="edge">
<title>1807&#45;&gt;3</title>
<path fill="none" stroke="green" stroke-width="0.52" d="M265,-65.88C261.9,-57.23 258.34,-47.31 255.21,-38.57"/>
<polygon fill="green" stroke="green" stroke-width="0.52" points="258.59,-37.64 251.92,-29.41 252,-40 258.59,-37.64"/>
</g>
</g>
</svg>
