<?xml version="1.0" encoding="utf-8" standalone="no"?>
<!DOCTYPE svg PUBLIC "-//W3C//DTD SVG 1.1//EN"
  "http://www.w3.org/Graphics/SVG/1.1/DTD/svg11.dtd">
<svg xmlns:xlink="http://www.w3.org/1999/xlink" width="460.8pt" height="345.6pt" viewBox="0 0 460.8 345.6" xmlns="http://www.w3.org/2000/svg" version="1.1">
 <metadata>
  <rdf:RDF xmlns:dc="http://purl.org/dc/elements/1.1/" xmlns:cc="http://creativecommons.org/ns#" xmlns:rdf="http://www.w3.org/1999/02/22-rdf-syntax-ns#">
   <cc:Work>
    <dc:type rdf:resource="http://purl.org/dc/dcmitype/StillImage"/>
    <dc:date>2024-06-08T19:59:01.575247</dc:date>
    <dc:format>image/svg+xml</dc:format>
    <dc:creator>
     <cc:Agent>
      <dc:title>Matplotlib v3.9.0, https://matplotlib.org/</dc:title>
     </cc:Agent>
    </dc:creator>
   </cc:Work>
  </rdf:RDF>
 </metadata>
 <defs>
  <style type="text/css">*{stroke-linejoin: round; stroke-linecap: butt}</style>
 </defs>
 <g id="figure_1">
  <g id="patch_1">
   <path d="M 0 345.6 
L 460.8 345.6 
L 460.8 0 
L 0 0 
z
" style="fill: #ffffff"/>
  </g>
  <g id="axes_1">
   <g id="patch_2">
    <path d="M 57.6 307.584 
L 414.72 307.584 
L 414.72 41.472 
L 57.6 41.472 
z
" style="fill: #ffffff"/>
   </g>
   <g id="PolyCollection_1">
    <path d="M 73.832727 213.838995 
L 73.832727 307.584 
L 109.905455 307.584 
L 145.978182 307.584 
L 182.050909 307.584 
L 218.123636 307.584 
L 254.196364 307.584 
L 290.269091 307.584 
L 326.341818 307.584 
L 362.414545 307.584 
L 398.487273 307.584 
L 398.487273 298.48745 
L 398.487273 298.48745 
L 362.414545 302.024997 
L 326.341818 297.22404 
L 290.269091 296.465994 
L 254.196364 299.245496 
L 218.123636 298.48745 
L 182.050909 297.476722 
L 145.978182 303.541089 
L 109.905455 270.945117 
L 73.832727 213.838995 
z
" clip-path="url(#pb361dfc694)" style="fill: #1f77b4"/>
   </g>
   <g id="PolyCollection_2">
    <path d="M 73.832727 199.436124 
L 73.832727 213.838995 
L 109.905455 270.945117 
L 145.978182 303.541089 
L 182.050909 297.476722 
L 218.123636 298.48745 
L 254.196364 299.245496 
L 290.269091 296.465994 
L 326.341818 297.22404 
L 362.414545 302.024997 
L 398.487273 298.48745 
L 398.487273 253.510062 
L 398.487273 253.510062 
L 362.414545 222.682863 
L 326.341818 287.874808 
L 290.269091 285.853352 
L 254.196364 288.12749 
L 218.123636 285.853352 
L 182.050909 285.60067 
L 145.978182 300.003541 
L 109.905455 237.843781 
L 73.832727 199.436124 
z
" clip-path="url(#pb361dfc694)" style="fill: #ff7f0e"/>
   </g>
   <g id="PolyCollection_3">
    <path d="M 73.832727 164.566014 
L 73.832727 199.436124 
L 109.905455 237.843781 
L 145.978182 300.003541 
L 182.050909 285.60067 
L 218.123636 285.853352 
L 254.196364 288.12749 
L 290.269091 285.853352 
L 326.341818 287.874808 
L 362.414545 222.682863 
L 398.487273 253.510062 
L 398.487273 240.623282 
L 398.487273 240.623282 
L 362.414545 196.909304 
L 326.341818 254.268108 
L 290.269091 257.047609 
L 254.196364 270.439753 
L 218.123636 253.762744 
L 182.050909 265.133432 
L 145.978182 291.665037 
L 109.905455 189.076164 
L 73.832727 164.566014 
z
" clip-path="url(#pb361dfc694)" style="fill: #2ca02c"/>
   </g>
   <g id="PolyCollection_4">
    <path d="M 73.832727 140.055864 
L 73.832727 164.566014 
L 109.905455 189.076164 
L 145.978182 291.665037 
L 182.050909 265.133432 
L 218.123636 253.762744 
L 254.196364 270.439753 
L 290.269091 257.047609 
L 326.341818 254.268108 
L 362.414545 196.909304 
L 398.487273 240.623282 
L 398.487273 230.516004 
L 398.487273 230.516004 
L 362.414545 189.581527 
L 326.341818 242.644738 
L 290.269091 241.886692 
L 254.196364 255.278835 
L 218.123636 239.612554 
L 182.050909 253.004698 
L 145.978182 285.853352 
L 109.905455 184.022524 
L 73.832727 140.055864 
z
" clip-path="url(#pb361dfc694)" style="fill: #d62728"/>
   </g>
   <g id="PolyCollection_5">
    <path d="M 73.832727 109.481348 
L 73.832727 140.055864 
L 109.905455 184.022524 
L 145.978182 285.853352 
L 182.050909 253.004698 
L 218.123636 239.612554 
L 254.196364 255.278835 
L 290.269091 241.886692 
L 326.341818 242.644738 
L 362.414545 189.581527 
L 398.487273 230.516004 
L 398.487273 224.704319 
L 398.487273 224.704319 
L 362.414545 183.264479 
L 326.341818 234.558915 
L 290.269091 232.790142 
L 254.196364 245.676921 
L 218.123636 230.01064 
L 182.050909 245.929603 
L 145.978182 283.326532 
L 109.905455 151.931916 
L 73.832727 109.481348 
z
" clip-path="url(#pb361dfc694)" style="fill: #9467bd"/>
   </g>
   <g id="PolyCollection_6">
    <path d="M 73.832727 91.793611 
L 73.832727 109.481348 
L 109.905455 151.931916 
L 145.978182 283.326532 
L 182.050909 245.929603 
L 218.123636 230.01064 
L 254.196364 245.676921 
L 290.269091 232.790142 
L 326.341818 234.558915 
L 362.414545 183.264479 
L 398.487273 224.704319 
L 398.487273 211.564857 
L 398.487273 211.564857 
L 362.414545 164.313332 
L 326.341818 219.65068 
L 290.269091 224.451637 
L 254.196364 231.526732 
L 218.123636 220.156044 
L 182.050909 245.171557 
L 145.978182 271.955844 
L 109.905455 113.524259 
L 73.832727 91.793611 
z
" clip-path="url(#pb361dfc694)" style="fill: #8c564b"/>
   </g>
   <g id="PolyCollection_7">
    <path d="M 73.832727 90.277519 
L 73.832727 91.793611 
L 109.905455 113.524259 
L 145.978182 271.955844 
L 182.050909 245.171557 
L 218.123636 220.156044 
L 254.196364 231.526732 
L 290.269091 224.451637 
L 326.341818 219.65068 
L 362.414545 164.313332 
L 398.487273 211.564857 
L 398.487273 196.909304 
L 398.487273 196.909304 
L 362.414545 153.953372 
L 326.341818 203.731717 
L 290.269091 218.639952 
L 254.196364 206.258536 
L 218.123636 211.312175 
L 182.050909 236.833053 
L 145.978182 269.176343 
L 109.905455 108.217938 
L 73.832727 90.277519 
z
" clip-path="url(#pb361dfc694)" style="fill: #e377c2"/>
   </g>
   <g id="PolyCollection_8">
    <path d="M 73.832727 76.885376 
L 73.832727 90.277519 
L 109.905455 108.217938 
L 145.978182 269.176343 
L 182.050909 236.833053 
L 218.123636 211.312175 
L 254.196364 206.258536 
L 290.269091 218.639952 
L 326.341818 203.731717 
L 362.414545 153.953372 
L 398.487273 196.909304 
L 398.487273 177.705476 
L 398.487273 177.705476 
L 362.414545 135.507589 
L 326.341818 180.737659 
L 290.269091 193.877121 
L 254.196364 183.264479 
L 218.123636 190.086891 
L 182.050909 218.892634 
L 145.978182 215.860451 
L 109.905455 107.20721 
L 73.832727 76.885376 
z
" clip-path="url(#pb361dfc694)" style="fill: #7f7f7f"/>
   </g>
   <g id="PolyCollection_9">
    <path d="M 73.832727 73.347829 
L 73.832727 76.885376 
L 109.905455 107.20721 
L 145.978182 215.860451 
L 182.050909 218.892634 
L 218.123636 190.086891 
L 254.196364 183.264479 
L 290.269091 193.877121 
L 326.341818 180.737659 
L 362.414545 135.507589 
L 398.487273 177.705476 
L 398.487273 165.071378 
L 398.487273 165.071378 
L 362.414545 122.368128 
L 326.341818 165.32406 
L 290.269091 177.705476 
L 254.196364 165.829424 
L 218.123636 173.1572 
L 182.050909 204.489763 
L 145.978182 208.02731 
L 109.905455 102.153571 
L 73.832727 73.347829 
z
" clip-path="url(#pb361dfc694)" style="fill: #bcbd22"/>
   </g>
   <g id="PolyCollection_10">
    <path d="M 73.832727 70.315645 
L 73.832727 73.347829 
L 109.905455 102.153571 
L 145.978182 208.02731 
L 182.050909 204.489763 
L 218.123636 173.1572 
L 254.196364 165.829424 
L 290.269091 177.705476 
L 326.341818 165.32406 
L 362.414545 122.368128 
L 398.487273 165.071378 
L 398.487273 152.942644 
L 398.487273 152.942644 
L 362.414545 101.900889 
L 326.341818 131.970042 
L 290.269091 155.974828 
L 254.196364 140.055864 
L 218.123636 125.905675 
L 182.050909 142.835366 
L 145.978182 89.772156 
L 109.905455 99.37407 
L 73.832727 70.315645 
z
" clip-path="url(#pb361dfc694)" style="fill: #17becf"/>
   </g>
   <g id="PolyCollection_11">
    <path d="M 73.832727 70.062963 
L 73.832727 70.315645 
L 109.905455 99.37407 
L 145.978182 89.772156 
L 182.050909 142.835366 
L 218.123636 125.905675 
L 254.196364 140.055864 
L 290.269091 155.974828 
L 326.341818 131.970042 
L 362.414545 101.900889 
L 398.487273 152.942644 
L 398.487273 143.088048 
L 398.487273 143.088048 
L 362.414545 92.804339 
L 326.341818 121.104718 
L 290.269091 148.647051 
L 254.196364 135.254907 
L 218.123636 122.368128 
L 182.050909 142.07732 
L 145.978182 89.266792 
L 109.905455 98.868706 
L 73.832727 70.062963 
z
" clip-path="url(#pb361dfc694)" style="fill: #1f77b4"/>
   </g>
   <g id="PolyCollection_12">
    <path d="M 73.832727 69.304917 
L 73.832727 70.062963 
L 109.905455 98.868706 
L 145.978182 89.266792 
L 182.050909 142.07732 
L 218.123636 122.368128 
L 254.196364 135.254907 
L 290.269091 148.647051 
L 326.341818 121.104718 
L 362.414545 92.804339 
L 398.487273 143.088048 
L 398.487273 129.948586 
L 398.487273 129.948586 
L 362.414545 77.896104 
L 326.341818 104.427709 
L 290.269091 130.201268 
L 254.196364 115.040351 
L 218.123636 100.132116 
L 182.050909 118.072534 
L 145.978182 65.514688 
L 109.905455 79.412195 
L 73.832727 69.304917 
z
" clip-path="url(#pb361dfc694)" style="fill: #ff7f0e"/>
   </g>
   <g id="PolyCollection_13">
    <path d="M 73.832727 64.50396 
L 73.832727 69.304917 
L 109.905455 79.412195 
L 145.978182 65.514688 
L 182.050909 118.072534 
L 218.123636 100.132116 
L 254.196364 115.040351 
L 290.269091 130.201268 
L 326.341818 104.427709 
L 362.414545 77.896104 
L 398.487273 129.948586 
L 398.487273 117.819852 
L 398.487273 117.819852 
L 362.414545 69.810281 
L 326.341818 90.024837 
L 290.269091 110.492076 
L 254.196364 95.078477 
L 218.123636 81.433651 
L 182.050909 101.648207 
L 145.978182 57.428865 
L 109.905455 60.461049 
L 73.832727 64.50396 
z
" clip-path="url(#pb361dfc694)" style="fill: #2ca02c"/>
   </g>
   <g id="PolyCollection_14">
    <path d="M 73.832727 59.197639 
L 73.832727 64.50396 
L 109.905455 60.461049 
L 145.978182 57.428865 
L 182.050909 101.648207 
L 218.123636 81.433651 
L 254.196364 95.078477 
L 290.269091 110.492076 
L 326.341818 90.024837 
L 362.414545 69.810281 
L 398.487273 117.819852 
L 398.487273 66.020052 
L 398.487273 66.020052 
L 362.414545 67.03078 
L 326.341818 68.041507 
L 290.269091 67.283462 
L 254.196364 64.50396 
L 218.123636 63.745914 
L 182.050909 60.461049 
L 145.978182 56.418138 
L 109.905455 59.703003 
L 73.832727 59.197639 
z
" clip-path="url(#pb361dfc694)" style="fill: #d62728"/>
   </g>
   <g id="PolyCollection_15">
    <path d="M 73.832727 58.439593 
L 73.832727 59.197639 
L 109.905455 59.703003 
L 145.978182 56.418138 
L 182.050909 60.461049 
L 218.123636 63.745914 
L 254.196364 64.50396 
L 290.269091 67.283462 
L 326.341818 68.041507 
L 362.414545 67.03078 
L 398.487273 66.020052 
L 398.487273 65.514688 
L 398.487273 65.514688 
L 362.414545 66.525416 
L 326.341818 67.536144 
L 290.269091 66.778098 
L 254.196364 63.998596 
L 218.123636 63.24055 
L 182.050909 59.955685 
L 145.978182 55.660092 
L 109.905455 56.67082 
L 73.832727 58.439593 
z
" clip-path="url(#pb361dfc694)" style="fill: #9467bd"/>
   </g>
   <g id="PolyCollection_16">
    <path d="M 73.832727 54.902046 
L 73.832727 58.439593 
L 109.905455 56.67082 
L 145.978182 55.660092 
L 182.050909 59.955685 
L 218.123636 63.24055 
L 254.196364 63.998596 
L 290.269091 66.778098 
L 326.341818 67.536144 
L 362.414545 66.525416 
L 398.487273 65.514688 
L 398.487273 54.144 
L 398.487273 54.144 
L 362.414545 54.649364 
L 326.341818 54.396682 
L 290.269091 54.649364 
L 254.196364 54.144 
L 218.123636 54.396682 
L 182.050909 54.396682 
L 145.978182 54.902046 
L 109.905455 54.396682 
L 73.832727 54.902046 
z
" clip-path="url(#pb361dfc694)" style="fill: #8c564b"/>
   </g>
   <g id="matplotlib.axis_1">
    <g id="xtick_1">
     <g id="line2d_1">
      <defs>
       <path id="mf86b04543f" d="M 0 0 
L 0 3.5 
" style="stroke: #000000; stroke-width: 0.8"/>
      </defs>
      <g>
       <use xlink:href="#mf86b04543f" x="73.832727" y="307.584" style="stroke: #000000; stroke-width: 0.8"/>
      </g>
     </g>
     <g id="text_1">
      <!-- 0 -->
      <g transform="translate(70.651477 322.182437) scale(0.1 -0.1)">
       <defs>
        <path id="DejaVuSans-30" d="M 2034 4250 
Q 1547 4250 1301 3770 
Q 1056 3291 1056 2328 
Q 1056 1369 1301 889 
Q 1547 409 2034 409 
Q 2525 409 2770 889 
Q 3016 1369 3016 2328 
Q 3016 3291 2770 3770 
Q 2525 4250 2034 4250 
z
M 2034 4750 
Q 2819 4750 3233 4129 
Q 3647 3509 3647 2328 
Q 3647 1150 3233 529 
Q 2819 -91 2034 -91 
Q 1250 -91 836 529 
Q 422 1150 422 2328 
Q 422 3509 836 4129 
Q 1250 4750 2034 4750 
z
" transform="scale(0.015625)"/>
       </defs>
       <use xlink:href="#DejaVuSans-30"/>
      </g>
     </g>
    </g>
    <g id="xtick_2">
     <g id="line2d_2">
      <g>
       <use xlink:href="#mf86b04543f" x="145.978182" y="307.584" style="stroke: #000000; stroke-width: 0.8"/>
      </g>
     </g>
     <g id="text_2">
      <!-- 2 -->
      <g transform="translate(142.796932 322.182437) scale(0.1 -0.1)">
       <defs>
        <path id="DejaVuSans-32" d="M 1228 531 
L 3431 531 
L 3431 0 
L 469 0 
L 469 531 
Q 828 903 1448 1529 
Q 2069 2156 2228 2338 
Q 2531 2678 2651 2914 
Q 2772 3150 2772 3378 
Q 2772 3750 2511 3984 
Q 2250 4219 1831 4219 
Q 1534 4219 1204 4116 
Q 875 4013 500 3803 
L 500 4441 
Q 881 4594 1212 4672 
Q 1544 4750 1819 4750 
Q 2544 4750 2975 4387 
Q 3406 4025 3406 3419 
Q 3406 3131 3298 2873 
Q 3191 2616 2906 2266 
Q 2828 2175 2409 1742 
Q 1991 1309 1228 531 
z
" transform="scale(0.015625)"/>
       </defs>
       <use xlink:href="#DejaVuSans-32"/>
      </g>
     </g>
    </g>
    <g id="xtick_3">
     <g id="line2d_3">
      <g>
       <use xlink:href="#mf86b04543f" x="218.123636" y="307.584" style="stroke: #000000; stroke-width: 0.8"/>
      </g>
     </g>
     <g id="text_3">
      <!-- 4 -->
      <g transform="translate(214.942386 322.182437) scale(0.1 -0.1)">
       <defs>
        <path id="DejaVuSans-34" d="M 2419 4116 
L 825 1625 
L 2419 1625 
L 2419 4116 
z
M 2253 4666 
L 3047 4666 
L 3047 1625 
L 3713 1625 
L 3713 1100 
L 3047 1100 
L 3047 0 
L 2419 0 
L 2419 1100 
L 313 1100 
L 313 1709 
L 2253 4666 
z
" transform="scale(0.015625)"/>
       </defs>
       <use xlink:href="#DejaVuSans-34"/>
      </g>
     </g>
    </g>
    <g id="xtick_4">
     <g id="line2d_4">
      <g>
       <use xlink:href="#mf86b04543f" x="290.269091" y="307.584" style="stroke: #000000; stroke-width: 0.8"/>
      </g>
     </g>
     <g id="text_4">
      <!-- 6 -->
      <g transform="translate(287.087841 322.182437) scale(0.1 -0.1)">
       <defs>
        <path id="DejaVuSans-36" d="M 2113 2584 
Q 1688 2584 1439 2293 
Q 1191 2003 1191 1497 
Q 1191 994 1439 701 
Q 1688 409 2113 409 
Q 2538 409 2786 701 
Q 3034 994 3034 1497 
Q 3034 2003 2786 2293 
Q 2538 2584 2113 2584 
z
M 3366 4563 
L 3366 3988 
Q 3128 4100 2886 4159 
Q 2644 4219 2406 4219 
Q 1781 4219 1451 3797 
Q 1122 3375 1075 2522 
Q 1259 2794 1537 2939 
Q 1816 3084 2150 3084 
Q 2853 3084 3261 2657 
Q 3669 2231 3669 1497 
Q 3669 778 3244 343 
Q 2819 -91 2113 -91 
Q 1303 -91 875 529 
Q 447 1150 447 2328 
Q 447 3434 972 4092 
Q 1497 4750 2381 4750 
Q 2619 4750 2861 4703 
Q 3103 4656 3366 4563 
z
" transform="scale(0.015625)"/>
       </defs>
       <use xlink:href="#DejaVuSans-36"/>
      </g>
     </g>
    </g>
    <g id="xtick_5">
     <g id="line2d_5">
      <g>
       <use xlink:href="#mf86b04543f" x="362.414545" y="307.584" style="stroke: #000000; stroke-width: 0.8"/>
      </g>
     </g>
     <g id="text_5">
      <!-- 8 -->
      <g transform="translate(359.233295 322.182437) scale(0.1 -0.1)">
       <defs>
        <path id="DejaVuSans-38" d="M 2034 2216 
Q 1584 2216 1326 1975 
Q 1069 1734 1069 1313 
Q 1069 891 1326 650 
Q 1584 409 2034 409 
Q 2484 409 2743 651 
Q 3003 894 3003 1313 
Q 3003 1734 2745 1975 
Q 2488 2216 2034 2216 
z
M 1403 2484 
Q 997 2584 770 2862 
Q 544 3141 544 3541 
Q 544 4100 942 4425 
Q 1341 4750 2034 4750 
Q 2731 4750 3128 4425 
Q 3525 4100 3525 3541 
Q 3525 3141 3298 2862 
Q 3072 2584 2669 2484 
Q 3125 2378 3379 2068 
Q 3634 1759 3634 1313 
Q 3634 634 3220 271 
Q 2806 -91 2034 -91 
Q 1263 -91 848 271 
Q 434 634 434 1313 
Q 434 1759 690 2068 
Q 947 2378 1403 2484 
z
M 1172 3481 
Q 1172 3119 1398 2916 
Q 1625 2713 2034 2713 
Q 2441 2713 2670 2916 
Q 2900 3119 2900 3481 
Q 2900 3844 2670 4047 
Q 2441 4250 2034 4250 
Q 1625 4250 1398 4047 
Q 1172 3844 1172 3481 
z
" transform="scale(0.015625)"/>
       </defs>
       <use xlink:href="#DejaVuSans-38"/>
      </g>
     </g>
    </g>
    <g id="text_6">
     <!-- Generations -->
     <g transform="translate(205.662344 335.860562) scale(0.1 -0.1)">
      <defs>
       <path id="DejaVuSans-47" d="M 3809 666 
L 3809 1919 
L 2778 1919 
L 2778 2438 
L 4434 2438 
L 4434 434 
Q 4069 175 3628 42 
Q 3188 -91 2688 -91 
Q 1594 -91 976 548 
Q 359 1188 359 2328 
Q 359 3472 976 4111 
Q 1594 4750 2688 4750 
Q 3144 4750 3555 4637 
Q 3966 4525 4313 4306 
L 4313 3634 
Q 3963 3931 3569 4081 
Q 3175 4231 2741 4231 
Q 1884 4231 1454 3753 
Q 1025 3275 1025 2328 
Q 1025 1384 1454 906 
Q 1884 428 2741 428 
Q 3075 428 3337 486 
Q 3600 544 3809 666 
z
" transform="scale(0.015625)"/>
       <path id="DejaVuSans-65" d="M 3597 1894 
L 3597 1613 
L 953 1613 
Q 991 1019 1311 708 
Q 1631 397 2203 397 
Q 2534 397 2845 478 
Q 3156 559 3463 722 
L 3463 178 
Q 3153 47 2828 -22 
Q 2503 -91 2169 -91 
Q 1331 -91 842 396 
Q 353 884 353 1716 
Q 353 2575 817 3079 
Q 1281 3584 2069 3584 
Q 2775 3584 3186 3129 
Q 3597 2675 3597 1894 
z
M 3022 2063 
Q 3016 2534 2758 2815 
Q 2500 3097 2075 3097 
Q 1594 3097 1305 2825 
Q 1016 2553 972 2059 
L 3022 2063 
z
" transform="scale(0.015625)"/>
       <path id="DejaVuSans-6e" d="M 3513 2113 
L 3513 0 
L 2938 0 
L 2938 2094 
Q 2938 2591 2744 2837 
Q 2550 3084 2163 3084 
Q 1697 3084 1428 2787 
Q 1159 2491 1159 1978 
L 1159 0 
L 581 0 
L 581 3500 
L 1159 3500 
L 1159 2956 
Q 1366 3272 1645 3428 
Q 1925 3584 2291 3584 
Q 2894 3584 3203 3211 
Q 3513 2838 3513 2113 
z
" transform="scale(0.015625)"/>
       <path id="DejaVuSans-72" d="M 2631 2963 
Q 2534 3019 2420 3045 
Q 2306 3072 2169 3072 
Q 1681 3072 1420 2755 
Q 1159 2438 1159 1844 
L 1159 0 
L 581 0 
L 581 3500 
L 1159 3500 
L 1159 2956 
Q 1341 3275 1631 3429 
Q 1922 3584 2338 3584 
Q 2397 3584 2469 3576 
Q 2541 3569 2628 3553 
L 2631 2963 
z
" transform="scale(0.015625)"/>
       <path id="DejaVuSans-61" d="M 2194 1759 
Q 1497 1759 1228 1600 
Q 959 1441 959 1056 
Q 959 750 1161 570 
Q 1363 391 1709 391 
Q 2188 391 2477 730 
Q 2766 1069 2766 1631 
L 2766 1759 
L 2194 1759 
z
M 3341 1997 
L 3341 0 
L 2766 0 
L 2766 531 
Q 2569 213 2275 61 
Q 1981 -91 1556 -91 
Q 1019 -91 701 211 
Q 384 513 384 1019 
Q 384 1609 779 1909 
Q 1175 2209 1959 2209 
L 2766 2209 
L 2766 2266 
Q 2766 2663 2505 2880 
Q 2244 3097 1772 3097 
Q 1472 3097 1187 3025 
Q 903 2953 641 2809 
L 641 3341 
Q 956 3463 1253 3523 
Q 1550 3584 1831 3584 
Q 2591 3584 2966 3190 
Q 3341 2797 3341 1997 
z
" transform="scale(0.015625)"/>
       <path id="DejaVuSans-74" d="M 1172 4494 
L 1172 3500 
L 2356 3500 
L 2356 3053 
L 1172 3053 
L 1172 1153 
Q 1172 725 1289 603 
Q 1406 481 1766 481 
L 2356 481 
L 2356 0 
L 1766 0 
Q 1100 0 847 248 
Q 594 497 594 1153 
L 594 3053 
L 172 3053 
L 172 3500 
L 594 3500 
L 594 4494 
L 1172 4494 
z
" transform="scale(0.015625)"/>
       <path id="DejaVuSans-69" d="M 603 3500 
L 1178 3500 
L 1178 0 
L 603 0 
L 603 3500 
z
M 603 4863 
L 1178 4863 
L 1178 4134 
L 603 4134 
L 603 4863 
z
" transform="scale(0.015625)"/>
       <path id="DejaVuSans-6f" d="M 1959 3097 
Q 1497 3097 1228 2736 
Q 959 2375 959 1747 
Q 959 1119 1226 758 
Q 1494 397 1959 397 
Q 2419 397 2687 759 
Q 2956 1122 2956 1747 
Q 2956 2369 2687 2733 
Q 2419 3097 1959 3097 
z
M 1959 3584 
Q 2709 3584 3137 3096 
Q 3566 2609 3566 1747 
Q 3566 888 3137 398 
Q 2709 -91 1959 -91 
Q 1206 -91 779 398 
Q 353 888 353 1747 
Q 353 2609 779 3096 
Q 1206 3584 1959 3584 
z
" transform="scale(0.015625)"/>
       <path id="DejaVuSans-73" d="M 2834 3397 
L 2834 2853 
Q 2591 2978 2328 3040 
Q 2066 3103 1784 3103 
Q 1356 3103 1142 2972 
Q 928 2841 928 2578 
Q 928 2378 1081 2264 
Q 1234 2150 1697 2047 
L 1894 2003 
Q 2506 1872 2764 1633 
Q 3022 1394 3022 966 
Q 3022 478 2636 193 
Q 2250 -91 1575 -91 
Q 1294 -91 989 -36 
Q 684 19 347 128 
L 347 722 
Q 666 556 975 473 
Q 1284 391 1588 391 
Q 1994 391 2212 530 
Q 2431 669 2431 922 
Q 2431 1156 2273 1281 
Q 2116 1406 1581 1522 
L 1381 1569 
Q 847 1681 609 1914 
Q 372 2147 372 2553 
Q 372 3047 722 3315 
Q 1072 3584 1716 3584 
Q 2034 3584 2315 3537 
Q 2597 3491 2834 3397 
z
" transform="scale(0.015625)"/>
      </defs>
      <use xlink:href="#DejaVuSans-47"/>
      <use xlink:href="#DejaVuSans-65" x="77.490234"/>
      <use xlink:href="#DejaVuSans-6e" x="139.013672"/>
      <use xlink:href="#DejaVuSans-65" x="202.392578"/>
      <use xlink:href="#DejaVuSans-72" x="263.916016"/>
      <use xlink:href="#DejaVuSans-61" x="305.029297"/>
      <use xlink:href="#DejaVuSans-74" x="366.308594"/>
      <use xlink:href="#DejaVuSans-69" x="405.517578"/>
      <use xlink:href="#DejaVuSans-6f" x="433.300781"/>
      <use xlink:href="#DejaVuSans-6e" x="494.482422"/>
      <use xlink:href="#DejaVuSans-73" x="557.861328"/>
     </g>
    </g>
   </g>
   <g id="matplotlib.axis_2">
    <g id="ytick_1">
     <g id="line2d_6">
      <defs>
       <path id="m4c4f04e972" d="M 0 0 
L -3.5 0 
" style="stroke: #000000; stroke-width: 0.8"/>
      </defs>
      <g>
       <use xlink:href="#m4c4f04e972" x="57.6" y="307.584" style="stroke: #000000; stroke-width: 0.8"/>
      </g>
     </g>
     <g id="text_7">
      <!-- 0 -->
      <g transform="translate(44.2375 311.383219) scale(0.1 -0.1)">
       <use xlink:href="#DejaVuSans-30"/>
      </g>
     </g>
    </g>
    <g id="ytick_2">
     <g id="line2d_7">
      <g>
       <use xlink:href="#m4c4f04e972" x="57.6" y="257.047609" style="stroke: #000000; stroke-width: 0.8"/>
      </g>
     </g>
     <g id="text_8">
      <!-- 200 -->
      <g transform="translate(31.5125 260.846828) scale(0.1 -0.1)">
       <use xlink:href="#DejaVuSans-32"/>
       <use xlink:href="#DejaVuSans-30" x="63.623047"/>
       <use xlink:href="#DejaVuSans-30" x="127.246094"/>
      </g>
     </g>
    </g>
    <g id="ytick_3">
     <g id="line2d_8">
      <g>
       <use xlink:href="#m4c4f04e972" x="57.6" y="206.511218" style="stroke: #000000; stroke-width: 0.8"/>
      </g>
     </g>
     <g id="text_9">
      <!-- 400 -->
      <g transform="translate(31.5125 210.310437) scale(0.1 -0.1)">
       <use xlink:href="#DejaVuSans-34"/>
       <use xlink:href="#DejaVuSans-30" x="63.623047"/>
       <use xlink:href="#DejaVuSans-30" x="127.246094"/>
      </g>
     </g>
    </g>
    <g id="ytick_4">
     <g id="line2d_9">
      <g>
       <use xlink:href="#m4c4f04e972" x="57.6" y="155.974828" style="stroke: #000000; stroke-width: 0.8"/>
      </g>
     </g>
     <g id="text_10">
      <!-- 600 -->
      <g transform="translate(31.5125 159.774046) scale(0.1 -0.1)">
       <use xlink:href="#DejaVuSans-36"/>
       <use xlink:href="#DejaVuSans-30" x="63.623047"/>
       <use xlink:href="#DejaVuSans-30" x="127.246094"/>
      </g>
     </g>
    </g>
    <g id="ytick_5">
     <g id="line2d_10">
      <g>
       <use xlink:href="#m4c4f04e972" x="57.6" y="105.438437" style="stroke: #000000; stroke-width: 0.8"/>
      </g>
     </g>
     <g id="text_11">
      <!-- 800 -->
      <g transform="translate(31.5125 109.237655) scale(0.1 -0.1)">
       <use xlink:href="#DejaVuSans-38"/>
       <use xlink:href="#DejaVuSans-30" x="63.623047"/>
       <use xlink:href="#DejaVuSans-30" x="127.246094"/>
      </g>
     </g>
    </g>
    <g id="ytick_6">
     <g id="line2d_11">
      <g>
       <use xlink:href="#m4c4f04e972" x="57.6" y="54.902046" style="stroke: #000000; stroke-width: 0.8"/>
      </g>
     </g>
     <g id="text_12">
      <!-- 1000 -->
      <g transform="translate(25.15 58.701265) scale(0.1 -0.1)">
       <defs>
        <path id="DejaVuSans-31" d="M 794 531 
L 1825 531 
L 1825 4091 
L 703 3866 
L 703 4441 
L 1819 4666 
L 2450 4666 
L 2450 531 
L 3481 531 
L 3481 0 
L 794 0 
L 794 531 
z
" transform="scale(0.015625)"/>
       </defs>
       <use xlink:href="#DejaVuSans-31"/>
       <use xlink:href="#DejaVuSans-30" x="63.623047"/>
       <use xlink:href="#DejaVuSans-30" x="127.246094"/>
       <use xlink:href="#DejaVuSans-30" x="190.869141"/>
      </g>
     </g>
    </g>
    <g id="text_13">
     <!-- Size per Species -->
     <g transform="translate(19.070312 215.520969) rotate(-90) scale(0.1 -0.1)">
      <defs>
       <path id="DejaVuSans-53" d="M 3425 4513 
L 3425 3897 
Q 3066 4069 2747 4153 
Q 2428 4238 2131 4238 
Q 1616 4238 1336 4038 
Q 1056 3838 1056 3469 
Q 1056 3159 1242 3001 
Q 1428 2844 1947 2747 
L 2328 2669 
Q 3034 2534 3370 2195 
Q 3706 1856 3706 1288 
Q 3706 609 3251 259 
Q 2797 -91 1919 -91 
Q 1588 -91 1214 -16 
Q 841 59 441 206 
L 441 856 
Q 825 641 1194 531 
Q 1563 422 1919 422 
Q 2459 422 2753 634 
Q 3047 847 3047 1241 
Q 3047 1584 2836 1778 
Q 2625 1972 2144 2069 
L 1759 2144 
Q 1053 2284 737 2584 
Q 422 2884 422 3419 
Q 422 4038 858 4394 
Q 1294 4750 2059 4750 
Q 2388 4750 2728 4690 
Q 3069 4631 3425 4513 
z
" transform="scale(0.015625)"/>
       <path id="DejaVuSans-7a" d="M 353 3500 
L 3084 3500 
L 3084 2975 
L 922 459 
L 3084 459 
L 3084 0 
L 275 0 
L 275 525 
L 2438 3041 
L 353 3041 
L 353 3500 
z
" transform="scale(0.015625)"/>
       <path id="DejaVuSans-20" transform="scale(0.015625)"/>
       <path id="DejaVuSans-70" d="M 1159 525 
L 1159 -1331 
L 581 -1331 
L 581 3500 
L 1159 3500 
L 1159 2969 
Q 1341 3281 1617 3432 
Q 1894 3584 2278 3584 
Q 2916 3584 3314 3078 
Q 3713 2572 3713 1747 
Q 3713 922 3314 415 
Q 2916 -91 2278 -91 
Q 1894 -91 1617 61 
Q 1341 213 1159 525 
z
M 3116 1747 
Q 3116 2381 2855 2742 
Q 2594 3103 2138 3103 
Q 1681 3103 1420 2742 
Q 1159 2381 1159 1747 
Q 1159 1113 1420 752 
Q 1681 391 2138 391 
Q 2594 391 2855 752 
Q 3116 1113 3116 1747 
z
" transform="scale(0.015625)"/>
       <path id="DejaVuSans-63" d="M 3122 3366 
L 3122 2828 
Q 2878 2963 2633 3030 
Q 2388 3097 2138 3097 
Q 1578 3097 1268 2742 
Q 959 2388 959 1747 
Q 959 1106 1268 751 
Q 1578 397 2138 397 
Q 2388 397 2633 464 
Q 2878 531 3122 666 
L 3122 134 
Q 2881 22 2623 -34 
Q 2366 -91 2075 -91 
Q 1284 -91 818 406 
Q 353 903 353 1747 
Q 353 2603 823 3093 
Q 1294 3584 2113 3584 
Q 2378 3584 2631 3529 
Q 2884 3475 3122 3366 
z
" transform="scale(0.015625)"/>
      </defs>
      <use xlink:href="#DejaVuSans-53"/>
      <use xlink:href="#DejaVuSans-69" x="63.476562"/>
      <use xlink:href="#DejaVuSans-7a" x="91.259766"/>
      <use xlink:href="#DejaVuSans-65" x="143.75"/>
      <use xlink:href="#DejaVuSans-20" x="205.273438"/>
      <use xlink:href="#DejaVuSans-70" x="237.060547"/>
      <use xlink:href="#DejaVuSans-65" x="300.537109"/>
      <use xlink:href="#DejaVuSans-72" x="362.060547"/>
      <use xlink:href="#DejaVuSans-20" x="403.173828"/>
      <use xlink:href="#DejaVuSans-53" x="434.960938"/>
      <use xlink:href="#DejaVuSans-70" x="498.4375"/>
      <use xlink:href="#DejaVuSans-65" x="561.914062"/>
      <use xlink:href="#DejaVuSans-63" x="623.4375"/>
      <use xlink:href="#DejaVuSans-69" x="678.417969"/>
      <use xlink:href="#DejaVuSans-65" x="706.201172"/>
      <use xlink:href="#DejaVuSans-73" x="767.724609"/>
     </g>
    </g>
   </g>
   <g id="patch_3">
    <path d="M 57.6 307.584 
L 57.6 41.472 
" style="fill: none; stroke: #000000; stroke-width: 0.8; stroke-linejoin: miter; stroke-linecap: square"/>
   </g>
   <g id="patch_4">
    <path d="M 414.72 307.584 
L 414.72 41.472 
" style="fill: none; stroke: #000000; stroke-width: 0.8; stroke-linejoin: miter; stroke-linecap: square"/>
   </g>
   <g id="patch_5">
    <path d="M 57.6 307.584 
L 414.72 307.584 
" style="fill: none; stroke: #000000; stroke-width: 0.8; stroke-linejoin: miter; stroke-linecap: square"/>
   </g>
   <g id="patch_6">
    <path d="M 57.6 41.472 
L 414.72 41.472 
" style="fill: none; stroke: #000000; stroke-width: 0.8; stroke-linejoin: miter; stroke-linecap: square"/>
   </g>
   <g id="text_14">
    <!-- Speciation -->
    <g transform="translate(204.714375 35.472) scale(0.12 -0.12)">
     <use xlink:href="#DejaVuSans-53"/>
     <use xlink:href="#DejaVuSans-70" x="63.476562"/>
     <use xlink:href="#DejaVuSans-65" x="126.953125"/>
     <use xlink:href="#DejaVuSans-63" x="188.476562"/>
     <use xlink:href="#DejaVuSans-69" x="243.457031"/>
     <use xlink:href="#DejaVuSans-61" x="271.240234"/>
     <use xlink:href="#DejaVuSans-74" x="332.519531"/>
     <use xlink:href="#DejaVuSans-69" x="371.728516"/>
     <use xlink:href="#DejaVuSans-6f" x="399.511719"/>
     <use xlink:href="#DejaVuSans-6e" x="460.693359"/>
    </g>
   </g>
  </g>
 </g>
 <defs>
  <clipPath id="pb361dfc694">
   <rect x="57.6" y="41.472" width="357.12" height="266.112"/>
  </clipPath>
 </defs>
</svg>
